# xmcd CD database file
#
# Track frame offsets:
#	150
#	20787
#	33891
#	53453
#	74487
#	92686
#	112033
#	132663
#	150319
#	163729
#	194023
#	230127
#
# Disc length: 3703 seconds
#
# Revision: 2
# Processed by: cddbd v1.5.2PL0 Copyright (c) Steve Scherf et al.
# Submitted via: CDex 1.70beta2
#
DISCID=a70e750c
DTITLE=Nelson - Revolving Doors
DYEAR=2006
DGENRE=Indie
TTITLE0=Slow Falling
TTITLE1=The (over) Song
TTITLE2=Silence In Your Mind
TTITLE3=The Darkest Parts Of Your True Confessions
TTITLE4=Inside
TTITLE5=People And Thieves
TTITLE6=Seasons
TTITLE7=Acrobatics
TTITLE8=I (syc) Stop
TTITLE9=Paid It All
TTITLE10=Frakshows
TTITLE11=I Say You Can't Stop (Velvet Square Version)
EXTD=YEAR: 2006
EXTT0=
EXTT1=
EXTT2=
EXTT3=
EXTT4=
EXTT5=
EXTT6=
EXTT7=
EXTT8=
EXTT9=
EXTT10=
EXTT11=
PLAYORDER=
